#!OML:ASF H:\Terrain\Patient Classification 1\Takeo\Monday\TakeoMonday.ASF
:FULLY-SPECIFIED
:DEGREES
704
root 9.70121 17.4894 -2.43171 19.271 6.56475 -5.73515
lowerback 20.3586 1.38583 -1.38618
upperback 11.5231 1.56264 -2.0617
thorax 1.12283 0.797898 -1.69829
lowerneck -11.4153 6.54403 2.03033
upperneck -14.4404 8.00523 -9.83459
head -2.21367 4.21775 -3.43805
rclavicle -3.18055e-015 1.27222e-014
rhumerus 23.3022 57.3936 -91.1888
rradius 40.5574
rwrist -38.7226
rhand -42.0594 2.05541
rfingers 7.12502
rthumb -14.9523 -27.3848
lclavicle -3.18055e-015 1.27222e-014
lhumerus 30.7519 -4.25912 86.1708
lradius 31.7499
lwrist 44.7415
lhand -34.7082 37.2785
lfingers 7.12502
lthumb -7.8631 67.1123
rfemur -14.5923 -16.1561 34.7134
rtibia 17.3456
rfoot -21.9455 -24.1751
rtoes -12.235
lfemur -47.9744 -0.124841 -15.4931
ltibia 30.7629
lfoot 0.377772 -3.27906
ltoes 1.01626
705
root 9.7071 17.4729 -2.4407 18.864 6.59049 -5.98159
lowerback 20.1256 1.29517 -0.801883
upperback 11.4425 1.54641 -1.9611
thorax 1.16097 0.81359 -1.91325
lowerneck -11.3261 6.39368 1.85124
upperneck -14.7663 7.81422 -9.6062
head -2.36929 4.13491 -3.35337
rclavicle 1.66979e-014 -3.97569e-015
rhumerus 23.6697 57.1571 -90.9089
rradius 40.459
rwrist -38.413
rhand -42.1276 2.75062
rfingers 7.12502
rthumb -15.0181 -26.6847
lclavicle 1.66979e-014 -3.97569e-015
lhumerus 30.5733 -4.80761 85.8051
lradius 33.0601
lwrist 45.006
lhand -34.8595 39.1942
lfingers 7.12502
lthumb -8.00919 69.0224
rfemur -14.4469 -16.2137 34.8875
rtibia 17.9225
rfoot -22.539 -24.3182
rtoes -11.3847
lfemur -47.6241 -0.308573 -15.1201
ltibia 30.855
lfoot 0.326274 -2.99923
ltoes 0.870602
706
root 9.71262 17.4549 -2.45107 18.7511 6.37629 -5.52857
lowerback 19.5566 1.24966 -1.03076
upperback 11.4024 1.46379 -2.03387
thorax 1.39671 0.764425 -1.83211
lowerneck -11.6494 6.33489 1.751
upperneck -14.8692 7.7329 -9.63015
head -2.35889 4.09434 -3.33814
rclavicle -2.8625e-014 2.46493e-014
rhumerus 23.8272 56.8631 -90.9438
rradius 40.4862
rwrist -37.6088
rhand -42.1853 3.03257
rfingers 7.12502
rthumb -15.0737 -26.3986
lclavicle -2.8625e-014 2.46493e-014
lhumerus 30.4918 -4.94164 85.6213
lradius 34.294
lwrist 44.8711
lhand -35.1542 39.0574
lfingers 7.12502
lthumb -8.29358 68.8746
rfemur -14.5777 -16.2142 34.304
rtibia 18.5361
rfoot -22.9682 -24.3953
rtoes -9.39446
lfemur -47.4373 -0.385043 -15.6591
ltibia 30.9175
lfoot 0.0891406 -2.99528
ltoes -0.138106
707
root 9.71376 17.4806 -2.45834 18.5587 6.02535 -4.97983
lowerback 19.0745 1.2997 -1.53758
upperback 11.2917 1.45988 -2.07824
thorax 1.50837 0.738678 -1.58164
lowerneck -11.655 6.3212 1.94617
upperneck -14.8686 7.66164 -9.98239
head -2.34008 4.05225 -3.49611
rclavicle 1.11319e-014 2.46493e-014
rhumerus 24.0404 56.7359 -90.7608
rradius 40.5388
rwrist -37.2568
rhand -42.5415 3.7984
rfingers 7.12502
rthumb -15.4168 -25.6067
lclavicle 1.11319e-014 2.46493e-014
lhumerus 30.6612 -5.2232 85.3106
lradius 34.8341
lwrist 45.0307
lhand -35.4844 38.2328
lfingers 7.12502
lthumb -8.61224 68.0372
rfemur -14.7478 -16.3056 33.5828
rtibia 19.2888
rfoot -23.1953 -24.5805
rtoes -8.9511
lfemur -47.0302 -0.342769 -16.3249
ltibia 30.8074
lfoot -0.0875688 -2.99759
ltoes -0.880085
708
root 9.71458 17.4878 -2.46629 18.0634 5.81119 -5.07713
lowerback 19.062 1.37096 -1.44446
upperback 11.0265 1.55829 -1.88819
thorax 1.2225 0.784161 -1.45242
lowerneck -11.3996 6.16425 1.8608
upperneck -14.8362 7.44553 -10.0315
head -2.38668 3.94898 -3.51432
rclavicle -1.43125e-014 3.26007e-014
rhumerus 23.9963 56.5979 -90.6096
rradius 40.4781
rwrist -36.8746
rhand -42.8856 4.44476
rfingers 7.12502
rthumb -15.7481 -24.9345
lclavicle -1.43125e-014 3.26007e-014
lhumerus 30.6784 -6.06802 84.6998
lradius 35.3224
lwrist 45.778
lhand -35.3978 38.0313
lfingers 7.12502
lthumb -8.52865 67.8391
rfemur -14.7709 -16.2983 33.4848
rtibia 20.363
rfoot -23.772 -24.5611
rtoes -8.29631
lfemur -46.4606 -0.0791077 -16.327
ltibia 30.607
lfoot 0.0491655 -3.08731
ltoes -1.24497
709
root 9.72206 17.4866 -2.47702 17.5293 5.55098 -4.87221
lowerback 19.1036 1.40619 -1.50642
upperback 10.8536 1.58742 -1.8461
thorax 1.01058 0.793971 -1.38115
lowerneck -11.1866 6.06411 1.93145
upperneck -15.1034 7.27327 -10.13
head -2.51971 3.86968 -3.58768
rclavicle -7.95139e-016 -8.74653e-015
rhumerus 24.1736 56.3792 -90.3758
rradius 40.4707
rwrist -36.2595
rhand -42.9974 4.62604
rfingers 7.12502
rthumb -15.8559 -24.7447
lclavicle -7.95139e-016 -8.74653e-015
lhumerus 30.633 -6.86073 84.1261
lradius 36.2122
lwrist 46.332
lhand -35.4353 38.5849
lfingers 7.12502
lthumb -8.56489 68.3911
rfemur -14.5354 -16.348 33.0135
rtibia 21.0165
rfoot -23.9386 -24.5884
rtoes -8.26552
lfemur -45.7693 0.0221125 -16.6497
ltibia 30.4517
lfoot 0.143618 -3.05588
ltoes -0.769662
710
root 9.74236 17.4693 -2.49103 17.1577 5.56713 -4.25228
lowerback 19.0478 1.24219 -1.5571
upperback 10.6603 1.36487 -1.98569
thorax 0.82832 0.686842 -1.46156
lowerneck -10.9626 6.02269 1.76891
upperneck -15.3714 7.23873 -9.80805
head -2.67115 3.86332 -3.46945
rclavicle 2.22639e-014 -3.02153e-014
rhumerus 24.5179 56.2191 -90.1911
rradius 40.3615
rwrist -35.9303
rhand -43.1835 5.46637
rfingers 7.12502
rthumb -16.0351 -23.8901
lclavicle 2.22639e-014 -3.02153e-014
lhumerus 30.6543 -7.29782 83.8238
lradius 37.061
lwrist 46.404
lhand -36.0484 39.4172
lfingers 7.12502
lthumb -9.15655 69.1984
rfemur -14.512 -16.9856 32.2703
rtibia 21.5846
rfoot -23.6961 -24.8534
rtoes -10.1063
lfemur -45.3479 -0.346291 -17.3471
ltibia 30.5003
lfoot 0.151372 -2.92382
ltoes 0.299462
711
root 9.73133 17.459 -2.49881 16.7122 5.39282 -4.45293
lowerback 18.8841 1.27037 -1.47821
upperback 10.4473 1.41392 -1.76821
thorax 0.675554 0.706568 -1.28312
lowerneck -10.8966 5.90578 1.0807
upperneck -15.3947 7.19005 -9.13011
head -2.74348 3.85883 -3.12011
rclavicle -7.95139e-016 -3.57812e-014
rhumerus 24.9308 56.1572 -89.8144
rradius 40.2555
rwrist -35.6176
rhand -43.2209 5.95764
rfingers 7.12502
rthumb -16.0711 -23.3959
lclavicle -7.95139e-016 -3.57812e-014
lhumerus 30.6079 -7.65332 83.6093
lradius 37.9378
lwrist 46.4991
lhand -36.693 38.6474
lfingers 7.12502
lthumb -9.77849 68.4004
rfemur -14.3454 -16.9372 32.4076
rtibia 22.2096
rfoot -24.0451 -25.1239
rtoes -11.0996
lfemur -44.9037 -0.0387651 -17.1963
ltibia 30.4653
lfoot 0.201065 -3.01761
ltoes 0.49629
712
root 9.73377 17.4467 -2.50887 16.2795 5.50715 -4.60024
lowerback 18.4598 1.17281 -1.10945
upperback 10.4417 1.35972 -1.51908
thorax 0.884527 0.687325 -1.20881
lowerneck -10.7913 5.73385 0.903853
upperneck -15.7636 6.93341 -9.24843
head -2.90712 3.75228 -3.15761
rclavicle 0 7.95139e-015
rhumerus 25.7183 55.8807 -88.864
rradius 40.4569
rwrist -35.1923
rhand -43.0701 5.6495
rfingers 7.12502
rthumb -15.9258 -23.7157
lclavicle 0 7.95139e-015
lhumerus 30.7888 -8.18338 83.3763
lradius 38.8951
lwrist 46.6329
lhand -36.9641 37.8817
lfingers 7.12502
lthumb -10.04 67.6222
rfemur -14.2281 -17.1245 32.516
rtibia 22.8219
rfoot -24.4973 -25.2804
rtoes -10.6748
lfemur -44.4681 -0.0476233 -17.0612
ltibia 30.3776
lfoot 0.211178 -3.11516
ltoes -0.100556
713
root 9.72306 17.4486 -2.51751 15.9126 5.09813 -4.07925
lowerback 17.9148 1.30614 -1.68647
upperback 10.4682 1.46152 -1.5331
thorax 1.18067 0.712331 -0.902844
lowerneck -10.4709 5.59466 1.05312
upperneck -16.2755 6.67118 -9.50101
head -3.14453 3.63697 -3.31427
rclavicle -4.77083e-015 7.15625e-015
rhumerus 26.3648 55.4807 -88.1903
rradius 40.6577
rwrist -34.7644
rhand -43.1625 6.21134
rfingers 7.12502
rthumb -16.0148 -23.1467
lclavicle -4.77083e-015 7.15625e-015
lhumerus 31.1591 -8.92756 82.7258
lradius 39.9308
lwrist 46.8531
lhand -37.0736 39.4007
lfingers 7.12502
lthumb -10.1456 69.136
rfemur -14.0189 -16.9609 31.799
rtibia 23.2167
rfoot -24.7088 -25.5786
rtoes -9.66423
lfemur -43.8918 0.0905172 -17.6714
ltibia 30.2971
lfoot 0.168748 -3.01541
ltoes 0.216129
714
root 9.71514 17.4455 -2.53889 15.6665 4.68853 -3.49389
lowerback 17.4396 1.37335 -2.20738
upperback 10.3373 1.48471 -1.67162
thorax 1.27641 0.704508 -0.749736
lowerneck -10.0502 5.481 1.25187
upperneck -16.6169 6.46503 -9.57438
head -3.34283 3.53817 -3.41282
rclavicle -4.77083e-014 1.66979e-014
rhumerus 26.5209 54.9788 -88.3176
rradius 40.659
rwrist -34.0404
rhand -43.8602 8.02616
rfingers 7.12502
rthumb -16.6866 -21.2766
lclavicle -4.77083e-014 1.66979e-014
lhumerus 31.5027 -9.6686 81.7963
lradius 40.8608
lwrist 47.0454
lhand -37.3398 40.4715
lfingers 7.12502
lthumb -10.4024 70.1942
rfemur -14.0214 -16.7588 31.0692
rtibia 23.7146
rfoot -25.2576 -25.6699
rtoes -8.294
lfemur -43.5226 0.179108 -18.3296
ltibia 30.1903
lfoot 0.317435 -2.84516
ltoes 1.14359
715
root 9.71813 17.4434 -2.56846 15.4591 4.25128 -3.36576
lowerback 17.016 1.42688 -2.17083
upperback 10.1658 1.5666 -1.71649
thorax 1.31115 0.747302 -0.822134
lowerneck -10.0597 5.28311 1.13796
upperneck -16.6701 6.22007 -9.31837
head -3.38674 3.41202 -3.31016
rclavicle -1.27222e-014 2.38542e-014
rhumerus 26.5824 54.3584 -88.4942
rradius 40.7937
rwrist -33.1386
rhand -45.3075 10.7518
rfingers 7.12502
rthumb -18.0795 -18.4279
lclavicle -1.27222e-014 2.38542e-014
lhumerus 32.0466 -9.96292 81.534
lradius 41.2665
lwrist 46.5015
lhand -37.5186 39.7203
lfingers 7.12502
lthumb -10.5749 69.4343
rfemur -14.0859 -16.5524 30.7918
rtibia 24.1116
rfoot -25.7571 -25.4257
rtoes -6.46994
lfemur -43.298 0.326118 -18.4765
ltibia 30.1559
lfoot 0.323072 -2.60365
ltoes 1.40023
716
root 9.72338 17.4419 -2.59609 15.139 3.89591 -3.4914
lowerback 16.7594 1.4818 -1.79941
upperback 9.97426 1.68886 -1.70619
thorax 1.24539 0.823422 -1.03471
lowerneck -10.4778 5.03024 0.526333
upperneck -16.2746 6.03136 -8.428
head -3.22836 3.30593 -2.86432
rclavicle -1.03368e-014 2.94201e-014
rhumerus 26.5972 53.8688 -88.4913
rradius 41.2001
rwrist -33.2
rhand -46.0414 12.0688
rfingers 7.12502
rthumb -18.7855 -17.0441
lclavicle -1.03368e-014 2.94201e-014
lhumerus 32.4398 -10.3178 81.4117
lradius 41.967
lwrist 46.1988
lhand -37.5294 39.0209
lfingers 7.12502
lthumb -10.5853 68.7343
rfemur -13.9605 -16.4263 30.7904
rtibia 24.2934
rfoot -26.0739 -25.1669
rtoes -5.19159
lfemur -43.0235 0.449458 -18.3336
ltibia 30.2131
lfoot 0.192462 -2.38195
ltoes 0.0208246
